<svg xmlns="http://www.w3.org/2000/svg" viewBox="0 0 547 218.8">
<g id="b2af94ab-8bf4-4ca8-808b-c6157af4c288" data-name="Capa 2">
<g id="be318eca-586d-4393-8ada-34fd54a5e442" data-name="Capa 1">
<path fill="white" d="M226.75,176.13c-1.28-.89-2.13-1.37-2.85-2-8.76-7.68-17.55-15.32-26.19-23.12a10.18,10.18,0,0,0-6.14-2.79c-25.11-2.59-49.68.26-73.92,7-11.2,3.12-22.44,6.19-33.78,8.77-17.25,3.93-34.42,2.41-51.41-2-6.17-1.59-12.29-3.38-18.4-5.2-.77-.23-1.34-1.15-2-1.75a7.28,7.28,0,0,1,2.59-.37c11.11,2.69,22.09,6,33.3,8.07,16,2.94,31.84.2,47.45-3.89,14.19-3.73,28.34-7.72,42.71-10.57a185.55,185.55,0,0,1,49.58-3.08c1.18.08,2.37,0,3.59,0-5.79-6.65-11.82-13-17.21-19.91a133,133,0,0,1-11.35-17.16c-3.2-5.74-3.64-12.15-2.13-18.62,2.87-12.28,13-19.55,26.18-18.76a33.66,33.66,0,0,1,24.4,11.9,4.06,4.06,0,0,1,.54.89c2.21-6.26,3.7-12.71,6.66-18.4,6-11.48,15-20.11,27.37-24.62C260.87,35,273.91,41,279.52,56.1c4.91,13.21,4.72,26.83,2.15,40.45-3.44,18.28-11.51,34.73-20.78,50.6-5.75,9.85-12.12,19.35-17.89,28.5,4.87-3,10.17-6.67,15.79-9.73,23.95-13,49.27-22.06,76.5-25.17,15-1.72,29.67.75,44.23,4.16,11.92,2.8,23.86,5.48,35.81,8.17,18.07,4.06,35.84,1.71,53.51-2.59a121.2,121.2,0,0,0,34-13.49A75,75,0,0,0,528,113.21c.45-.71,1.44-1.07,2.18-1.59-.09,1,.14,2.1-.31,2.83a70,70,0,0,1-25.07,23.85c-22.71,12.92-47.11,20.39-73.37,18.94-12-.66-23.94-3.79-35.84-6.11-11-2.14-21.92-4.93-33-7-15.62-3-31.11-1.15-46.4,2.4-26.09,6.05-50.53,16-72.34,31.78-2.87,2.08-5.48,4.5-8.3,6.64a9.85,9.85,0,0,1-2.74,1,9.25,9.25,0,0,1,1-2.84,280.67,280.67,0,0,0,29.07-44c8.21-15.68,15.08-31.85,17.53-49.56,1.41-10.15,1-20.2-2.13-30a42.74,42.74,0,0,0-1.65-4.24c-5.41-12-15.79-16.78-28.43-13-18.17,5.47-33,25.06-33.19,44a21.43,21.43,0,0,0,.85,4.09c.78,4,1.57,8.08,2.22,12.15.09.62-.56,1.36-.86,2-.62-.55-1.61-1-1.78-1.65-1-4-1.81-8.07-2.81-12.08a15.3,15.3,0,0,0-1.79-5c-6.92-10-21.83-15.08-33.51-11.62s-17.75,14.89-14,27.63a60.89,60.89,0,0,0,7.26,14.91c6.74,10.69,15.6,19.64,24.62,28.39a7,7,0,0,0,3.19,1.47A46,46,0,0,1,221.81,160c3.24,3.5,5.56,7.49,5.54,12.46A24.57,24.57,0,0,1,226.75,176.13ZM224.7,172c-.41-8.84-14.2-21-24.38-21.58Z"/>
</g>
</g>
</svg>